<svg xmlns="http://www.w3.org/2000/svg" version="1.1" xmlns:xlink="http://www.w3.org/1999/xlink" xmlns:svgjs="http://svgjs.dev/svgjs" width="100%" height="100%" viewBox="0 0 1000 600"><rect width="1000" height="600" x="0" y="0" fill="#295f2d"/><g><rect width="333.3333333333333" height="333.3333333333333" rx="13.333333333333334" ry="13.333333333333334" y="264.02010464256864" fill="#ffe67c" transform="matrix(0.5169607434642227,0,0,0.5169607434642227,0,77.35185413316704)" x="241.7978515625"/><path d="M417.45261923255157 505.6867801255281L357.0359543950221 505.6867801255281Q354.68476399001474 505.6867801255281 353.40500212399814 504.2879706440681Q352.09547835412064 502.88916116260805 352.09547835412064 500.7463040846267L352.09547835412064 500.7463040846267L352.09547835412064 360.83559403476164Q352.09547835412064 358.4844036297543 353.40500212399814 357.08559414829426Q354.68476399001474 355.6867846668342 357.0359543950221 355.6867846668342L357.0359543950221 355.6867846668342L415.756190712483 355.6867846668342Q431.827618797343 355.6867846668342 442.0061899177544 360.9248797463442Q452.1847610381658 366.19273672971497 457.0061894636238 375.1808316956923Q461.8276178890818 384.19868856553046 461.8276178890818 395.32964060948905L461.8276178890818 395.32964060948905Q461.8276178890818 404.10940224844035 458.9407132145792 410.4486877708018Q456.0240466362157 416.75821138930246 451.738332480253 420.7165446027958Q447.4526183242903 424.6748778162891 443.4049993992145 426.8177348942704L443.4049993992145 426.8177348942704Q451.738332480253 430.89511572320714 458.2859513296404 440.1213059200712Q464.83357017902784 449.3177342130745 464.83357017902784 462.41297191184935L464.83357017902784 462.41297191184935Q464.83357017902784 474.19868584074675 459.4764274840745 484.0498760186888Q454.11928478912114 493.9010661966307 443.494285110797 499.7939231610794Q432.8990473363337 505.6867801255281 417.45261923255157 505.6867801255281L417.45261923255157 505.6867801255281ZM373.1073824798821 436.2522584181605L373.1073824798821 488.33559017465143L414.68476217349235 488.33559017465143Q428.4049998533451 488.33559017465143 435.90499962627973 480.83559040171673Q443.4049993992145 473.33559062878203 443.4049993992145 462.41297191184935L443.4049993992145 462.41297191184935Q443.4049993992145 451.0439246370039 435.90499962627973 443.66297247951263Q428.4049998533451 436.2522584181605 414.68476217349235 436.2522584181605L414.68476217349235 436.2522584181605L373.1073824798821 436.2522584181605ZM373.1073824798821 373.0379746177109L373.1073824798821 419.10940179430975L412.54190509551097 419.10940179430975Q426.2621427753637 419.10940179430975 433.31571399038563 412.79987817580917Q440.3990471092684 406.4605926534477 440.3990471092684 395.537973936515L440.3990471092684 395.537973936515Q440.3990471092684 384.61535521958234 433.31571399038563 378.8415458705771Q426.2621427753637 373.0379746177109 412.54190509551097 373.0379746177109L412.54190509551097 373.0379746177109L373.1073824798821 373.0379746177109Z " fill="#295f2d" transform="matrix(0.5169607434642227,0,0,0.5169607434642227,0,77.35185413316704)"/><path d="M707.2356217316834 470.50763098374466L662.1512279098888 470.50763098374466Q660.3967120912082 470.50763098374466 659.4417224683821 469.4638051169346Q658.4645237845598 468.41997925012464 658.4645237845598 466.82092685841565L658.4645237845598 466.82092685841565L658.4645237845598 362.41613111641755Q658.4645237845598 360.66161529773683 659.4417224683821 359.6177894309268Q660.3967120912082 358.5739635641168 662.1512279098888 358.5739635641168L662.1512279098888 358.5739635641168L705.9697052549138 358.5739635641168Q717.9625981927311 358.5739635641168 725.5580970533487 362.4827582994054Q733.1535959139662 366.41376209568995 736.7514637953115 373.1208985164692Q740.3493316766567 379.8502439982445 740.3493316766567 388.1564328107327L740.3493316766567 388.1564328107327Q740.3493316766567 394.7081058045403 738.1950527600487 399.43863579667936Q736.0185647824449 404.14695672782244 732.820459999027 407.1007618402848Q729.622355215609 410.0545669527472 726.6019229201587 411.6536193444562L726.6019229201587 411.6536193444562Q732.820459999027 414.6962607009024 737.7064534181377 421.5810696096494Q742.5924468372484 428.4436694574004 742.5924468372484 438.2156562956219L742.5924468372484 438.2156562956219Q742.5924468372484 447.01044445002117 738.594815857976 454.3616436396833Q734.5971848787035 461.71284282934533 726.6685501031466 466.110236906545Q718.7621243885856 470.50763098374466 707.2356217316834 470.50763098374466L707.2356217316834 470.50763098374466ZM674.1441208477061 418.6938916801749L674.1441208477061 457.5597484231012L705.1701790590594 457.5597484231012Q715.4085561781959 457.5597484231012 721.0052395491773 451.9630650521198Q726.6019229201587 446.3663816811384 726.6019229201587 438.2156562956219L726.6019229201587 438.2156562956219Q726.6019229201587 429.73179499516596 721.0052395491773 424.22394786816835Q715.4085561781959 418.6938916801749 705.1701790590594 418.6938916801749L705.1701790590594 418.6938916801749L674.1441208477061 418.6938916801749ZM674.1441208477061 371.52184612476026L674.1441208477061 405.9014725465031L703.5711266673504 405.9014725465031Q713.809503786487 405.9014725465031 719.073051242529 401.19315161536Q724.358807759567 396.46262162322097 724.358807759567 388.31189623770445L724.358807759567 388.31189623770445Q724.358807759567 380.16117085218787 719.073051242529 375.8526130189721Q713.809503786487 371.52184612476026 703.5711266673504 371.52184612476026L703.5711266673504 371.52184612476026L674.1441208477061 371.52184612476026ZM796.4716288134423 472.10668337545366L796.4716288134423 472.10668337545366Q779.8370421274699 472.10668337545366 770.0872643502444 461.95714250030085Q760.3374865730189 451.8076016251481 759.3824969501926 434.21802531634944L759.3824969501926 434.21802531634944Q759.2048244622249 432.1303735827294 759.2048244622249 428.8434325553276Q759.2048244622249 425.57870058892183 759.3824969501926 423.49104885530176L759.3824969501926 423.49104885530176Q760.0043506580794 412.1422186863673 764.6460444062346 403.5917302029235Q769.2877381543898 395.0412417194797 777.3718363569185 390.39954797132447Q785.4337254984512 385.75785422316926 796.3161653864706 385.75785422316926L796.3161653864706 385.75785422316926Q808.4645217512596 385.75785422316926 816.70408338076 390.86593825223963Q824.9436450102603 395.99623134230586 829.2522028434762 405.435082265588Q833.560760676692 414.85172412787415 833.560760676692 427.4886798345742L833.560760676692 427.4886798345742L833.560760676692 430.22039433707704Q833.560760676692 431.9749101557577 832.539143870878 432.9298997785839Q831.4953180040679 433.8848894014101 829.896265612359 433.8848894014101L829.896265612359 433.8848894014101L774.5734946714279 433.8848894014101Q774.5734946714279 434.0403528283818 774.5734946714279 434.5289521702929Q774.5734946714279 435.0175515122039 774.5734946714279 435.32847836614735L774.5734946714279 435.32847836614735Q774.8844215253712 441.88015135995494 777.4384635399064 447.5656709749202Q779.9925055544415 453.22898152888945 784.8784989735523 456.76022222724674Q789.764492392663 460.26925386460806 796.3161653864706 460.26925386460806L796.3161653864706 460.26925386460806Q802.0683121844237 460.26925386460806 805.9104797367245 458.5147380459274Q809.7526472890252 456.76022222724674 812.1512258765886 454.60594331063885Q814.5498044641521 452.4294553330349 815.3493306600066 451.16353885626535L815.3493306600066 451.16353885626535Q816.7707105637478 449.231350549617 817.5702367596023 448.83158745168976Q818.3697629554568 448.4318243537625 820.1464878351335 448.4318243537625L820.1464878351335 448.4318243537625L827.9640773057106 448.4318243537625Q829.4076662704479 448.4318243537625 830.4514921372579 449.32018679360084Q831.4953180040679 450.20854923343916 831.3398545770963 451.8076016251481L831.3398545770963 451.8076016251481Q831.1621820891286 454.20618021271156 828.7636035015651 457.6263756060891Q826.3650249140017 461.0687800604626 821.967630836802 464.42234827085224Q817.5702367596023 467.7981255422378 811.1074000097785 469.9524044588457Q804.6223541989589 472.10668337545366 796.4716288134423 472.10668337545366ZM774.5734946714279 422.38059580550384L774.5734946714279 422.846986086419L818.3697629554568 422.846986086419L818.3697629554568 422.38059580550384Q818.3697629554568 415.1848600428135 815.7490937579338 409.5881766718321Q813.1062154994147 403.9914933008507 808.1535948973161 400.70455227344894Q803.1787652342216 397.43982030704314 796.3161653864706 397.43982030704314L796.3161653864706 397.43982030704314Q789.4313564777236 397.43982030704314 784.5675721196088 400.70455227344894Q779.6815787004981 403.9914933008507 777.1275366859629 409.5881766718321Q774.5734946714279 415.1848600428135 774.5734946714279 422.38059580550384L774.5734946714279 422.38059580550384ZM864.1204286071301 470.50763098374466L856.4360935025287 470.50763098374466Q854.8370411108197 470.50763098374466 853.7932152440096 469.4638051169346Q852.7493893771996 468.41997925012464 852.7493893771996 466.82092685841565L852.7493893771996 466.82092685841565L852.7493893771996 391.04361074020727Q852.7493893771996 389.4445583484983 853.7932152440096 388.4007324816883Q854.8370411108197 387.35690661487826 856.4360935025287 387.35690661487826L856.4360935025287 387.35690661487826L864.1204286071301 387.35690661487826Q865.7194809988391 387.35690661487826 866.7410978046531 388.4007324816883Q867.7849236714632 389.4445583484983 867.7849236714632 391.04361074020727L867.7849236714632 391.04361074020727L867.7849236714632 466.82092685841565Q867.7849236714632 468.41997925012464 866.7410978046531 469.4638051169346Q865.7194809988391 470.50763098374466 864.1204286071301 470.50763098374466L864.1204286071301 470.50763098374466ZM865.230881656928 371.8549820396996L855.1479679647631 371.8549820396996Q853.5489155730542 371.8549820396996 852.5272987672402 370.8111561728896Q851.4834729004301 369.7673303060796 851.4834729004301 368.1682779143706L851.4834729004301 368.1682779143706L851.4834729004301 359.528953186943Q851.4834729004301 357.929900795234 852.5272987672402 356.81944774543615Q853.5489155730542 355.68678563464226 855.1479679647631 355.68678563464226L855.1479679647631 355.68678563464226L865.230881656928 355.68678563464226Q866.8299340486369 355.68678563464226 867.9403870984348 356.81944774543615Q869.0730492092287 357.929900795234 869.0730492092287 359.528953186943L869.0730492092287 359.528953186943L869.0730492092287 368.1682779143706Q869.0730492092287 369.7673303060796 867.9403870984348 370.8111561728896Q866.8299340486369 371.8549820396996 865.230881656928 371.8549820396996L865.230881656928 371.8549820396996ZM903.1195397160322 470.50763098374466L895.1242777574873 470.50763098374466Q893.5252253657784 470.50763098374466 892.5036085599643 469.4638051169346Q891.4597826931542 468.41997925012464 891.4597826931542 466.82092685841565L891.4597826931542 466.82092685841565L891.4597826931542 391.04361074020727Q891.4597826931542 389.4445583484983 892.5036085599643 388.4007324816883Q893.5252253657784 387.35690661487826 895.1242777574873 387.35690661487826L895.1242777574873 387.35690661487826L902.653149435117 387.35690661487826Q904.2522018268261 387.35690661487826 905.2960276936361 388.4007324816883Q906.3176444994501 389.4445583484983 906.3176444994501 391.04361074020727L906.3176444994501 391.04361074020727L906.3176444994501 398.06167401492996Q910.4929479666903 392.6426631319162 916.8003212895424 389.20025867754276Q923.1076946123943 385.75785422316926 933.0351448775875 385.75785422316926L933.0351448775875 385.75785422316926Q943.4289854236958 385.75785422316926 950.691348369374 390.3107117273407Q957.9759203760482 394.86356923151203 961.7292516843652 402.9476674340407Q965.482582992682 411.0317656365694 965.482582992682 421.7365330366211L965.482582992682 421.7365330366211L965.482582992682 466.82092685841565Q965.482582992682 468.41997925012464 964.460966186868 469.4638051169346Q963.4171403200579 470.50763098374466 961.8180879283489 470.50763098374466L961.8180879283489 470.50763098374466L953.8228259698042 470.50763098374466Q952.2237735780952 470.50763098374466 951.1799477112852 469.4638051169346Q950.1361218444752 468.41997925012464 950.1361218444752 466.82092685841565L950.1361218444752 466.82092685841565L950.1361218444752 422.53605923247557Q950.1361218444752 411.3426924905128 944.6949019004654 405.03531916766076Q939.2758910174516 398.70573678381277 928.7043779833757 398.70573678381277L928.7043779833757 398.70573678381277Q918.7991367791785 398.70573678381277 912.8026903102698 405.03531916766076Q906.8062438413613 411.3426924905128 906.8062438413613 422.53605923247557L906.8062438413613 422.53605923247557L906.8062438413613 466.82092685841565Q906.8062438413613 468.41997925012464 905.7624179745512 469.4638051169346Q904.7185921077412 470.50763098374466 903.1195397160322 470.50763098374466L903.1195397160322 470.50763098374466ZM1022.4266153863181 505.686783601342L1022.4266153863181 505.686783601342Q1011.5441754982987 505.686783601342 1004.5927394065639 502.7996056718674Q997.641303314829 499.9346368033889 993.7102995185446 495.84816958013266Q989.801504783256 491.78391141787233 988.1136161475631 487.6974441946161Q986.4479365728662 483.61097697135983 986.2702640848986 481.21239838379637L986.2702640848986 481.21239838379637Q986.1148006579269 479.61334599208743 987.3140899517086 478.5028929422895Q988.5133792454903 477.3924398924916 989.9569682102276 477.3924398924916L989.9569682102276 477.3924398924916L997.641303314829 477.3924398924916Q999.0626832185703 477.3924398924916 1000.0398819023925 478.01429360037844Q1000.9948715252187 478.65835636926124 1001.6389342941015 480.74600810288126L1001.6389342941015 480.74600810288126Q1002.5939239169277 483.1445866904447 1004.5039031625801 486.09839180290714Q1006.4360914692284 489.05219691536956 1010.4337224485009 491.20647583197746Q1014.4313534277733 493.3829638095813 1021.6270891904636 493.3829638095813L1021.6270891904636 493.3829638095813Q1029.1337518070975 493.3829638095813 1034.2418358361679 491.2953120759613Q1039.372128926234 489.2076603423412 1042.015007184753 484.25503974024264Q1044.635676382276 479.302419138144 1044.635676382276 470.50763098374466L1044.635676382276 470.50763098374466L1044.635676382276 459.6251910957253Q1040.8157178909712 464.6000207588199 1034.5749717511071 467.8647527252257Q1028.3342256112428 471.15169375262747 1018.8953746879608 471.15169375262747L1018.8953746879608 471.15169375262747Q1009.9451231065898 471.15169375262747 1003.5489135397538 468.0202161521974Q997.152703972918 464.91094761276327 993.0662367496617 459.55856391273744Q989.0019785874015 454.20618021271156 987.0031630977652 447.3213713039646Q985.004347608129 440.43656239521766 984.6712116931897 432.9298997785839L984.6712116931897 432.9298997785839Q984.515748266218 428.4436694574004 984.6712116931897 424.13511162418456L984.6712116931897 424.13511162418456Q985.004347608129 416.6284490075508 987.0031630977652 409.74364009880384Q989.0019785874015 402.8588311900569 993.0662367496617 397.43982030704314Q997.152703972918 391.99860036303346 1003.5489135397538 388.8671227626034Q1009.9451231065898 385.75785422316926 1018.8953746879608 385.75785422316926L1018.8953746879608 385.75785422316926Q1028.4896890382147 385.75785422316926 1034.8192714220627 389.26688586053064Q1041.1266447449148 392.79812655888793 1045.124275724187 398.06167401492996L1045.124275724187 398.06167401492996L1045.124275724187 391.199074167179Q1045.124275724187 389.60002177547 1046.1681015909971 388.46735966467617Q1047.2119274578072 387.35690661487826 1048.8109798495161 387.35690661487826L1048.8109798495161 387.35690661487826L1056.1621790391782 387.35690661487826Q1057.7612314308872 387.35690661487826 1058.871684480685 388.46735966467617Q1060.004346591479 389.60002177547 1060.004346591479 391.199074167179L1060.004346591479 391.199074167179L1060.004346591479 468.753115165064Q1060.004346591479 479.4578825651157 1056.4064787101338 487.78628043859993Q1052.8086108287885 496.0924692510882 1044.5690491992882 500.88962642621516Q1036.3294875697877 505.686783601342 1022.4266153863181 505.686783601342ZM1022.0934794713787 458.3592746189557L1022.0934794713787 458.3592746189557Q1030.0887414299236 458.3592746189557 1034.9747348490343 454.67257049362667Q1039.8385192071491 451.0080754292936 1042.1704706117248 445.41139205831223Q1044.4802129553043 439.81470868733084 1044.635676382276 434.0403528283818L1044.635676382276 434.0403528283818Q1044.8133488702438 431.819446728786 1044.8133488702438 428.53250570138425Q1044.8133488702438 425.24556467398247 1044.635676382276 423.02465857438665L1044.635676382276 423.02465857438665Q1044.4802129553043 417.2503027154376 1042.1704706117248 411.6536193444562Q1039.8385192071491 406.0569359734748 1034.9747348490343 402.3924409091417Q1030.0887414299236 398.70573678381277 1022.0934794713787 398.70573678381277L1022.0934794713787 398.70573678381277Q1014.0982175128338 398.70573678381277 1009.301060337707 402.30360466515793Q1004.5039031625801 405.9014725465031 1002.438460489956 411.74245558844007Q1000.3508087563359 417.583438630377 1000.0398819023925 424.2905750511562L1000.0398819023925 424.2905750511562Q999.8622094144248 428.4436694574004 1000.0398819023925 432.77443635161217L1000.0398819023925 432.77443635161217Q1000.3508087563359 439.4815727723915 1002.438460489956 445.3225558143284Q1004.5039031625801 451.16353885626535 1009.301060337707 454.7614067376105Q1014.0982175128338 458.3592746189557 1022.0934794713787 458.3592746189557ZM1193.991611580093 470.50763098374466L1128.7635994349646 470.50763098374466Q1126.986874555288 470.50763098374466 1126.0318849324617 469.4638051169346Q1125.0768953096356 468.41997925012464 1125.0768953096356 466.82092685841565L1125.0768953096356 466.82092685841565L1125.0768953096356 362.26066768944577Q1125.0768953096356 360.66161529773683 1126.0318849324617 359.6177894309268Q1126.986874555288 358.5739635641168 1128.7635994349646 358.5739635641168L1128.7635994349646 358.5739635641168L1137.2252516744245 358.5739635641168Q1138.8243040661337 358.5739635641168 1139.8681299329437 359.6177894309268Q1140.9119557997535 360.66161529773683 1140.9119557997535 362.26066768944577L1140.9119557997535 362.26066768944577L1140.9119557997535 456.604758800275L1193.991611580093 456.604758800275Q1195.7461273987738 456.604758800275 1196.7899532655838 457.6263756060891Q1197.8337791323938 458.6702014728991 1197.8337791323938 460.4247172915798L1197.8337791323938 460.4247172915798L1197.8337791323938 466.82092685841565Q1197.8337791323938 468.41997925012464 1196.7899532655838 469.4638051169346Q1195.7461273987738 470.50763098374466 1193.991611580093 470.50763098374466L1193.991611580093 470.50763098374466ZM1246.293950225574 472.10668337545366L1246.293950225574 472.10668337545366Q1229.6593635396014 472.10668337545366 1219.9095857623759 461.95714250030085Q1210.1375989241544 451.8076016251481 1209.1826093013283 434.21802531634944L1209.1826093013283 434.21802531634944Q1209.0271458743564 432.1303735827294 1209.0271458743564 428.8434325553276Q1209.0271458743564 425.57870058892183 1209.1826093013283 423.49104885530176L1209.1826093013283 423.49104885530176Q1209.8266720702109 412.1422186863673 1214.4683658183662 403.5917302029235Q1219.1100595665212 395.0412417194797 1227.171948708054 390.39954797132447Q1235.2560469105829 385.75785422316926 1246.1162777376062 385.75785422316926L1246.1162777376062 385.75785422316926Q1258.286843163391 385.75785422316926 1266.5041957318956 390.86593825223963Q1274.7437573613959 395.99623134230586 1279.0745242556077 405.435082265588Q1283.3830820888236 414.85172412787415 1283.3830820888236 427.4886798345742L1283.3830820888236 427.4886798345742L1283.3830820888236 430.22039433707704Q1283.3830820888236 431.9749101557577 1282.3392562220135 432.9298997785839Q1281.2954303552035 433.8848894014101 1279.6963779634946 433.8848894014101L1279.6963779634946 433.8848894014101L1224.3736070225634 433.8848894014101Q1224.3736070225634 434.0403528283818 1224.3736070225634 434.5289521702929Q1224.3736070225634 435.0175515122039 1224.3736070225634 435.32847836614735L1224.3736070225634 435.32847836614735Q1224.706742937503 441.88015135995494 1227.2607849520377 447.5656709749202Q1229.814826966573 453.22898152888945 1234.700820385684 456.76022222724674Q1239.5646047437986 460.26925386460806 1246.1162777376062 460.26925386460806L1246.1162777376062 460.26925386460806Q1251.8906335965553 460.26925386460806 1255.71059208786 458.5147380459274Q1259.5527596401607 456.76022222724674 1261.9513382277241 454.60594331063885Q1264.3499168152875 452.4294553330349 1265.149443011142 451.16353885626535L1265.149443011142 451.16353885626535Q1266.5930319758793 449.231350549617 1267.3925581717338 448.83158745168976Q1268.1920843675882 448.4318243537625 1269.946600186269 448.4318243537625L1269.946600186269 448.4318243537625L1277.7863987178423 448.4318243537625Q1279.2299876825793 448.4318243537625 1280.2738135493894 449.32018679360084Q1281.2954303552035 450.20854923343916 1281.1399669282316 451.8076016251481L1281.1399669282316 451.8076016251481Q1280.9845035012602 454.20618021271156 1278.5859249136968 457.6263756060891Q1276.1873463261334 461.0687800604626 1271.7899522489336 464.42234827085224Q1267.3925581717338 467.7981255422378 1260.907512360914 469.9524044588457Q1254.4446756110906 472.10668337545366 1246.293950225574 472.10668337545366ZM1224.3736070225634 422.38059580550384L1224.3736070225634 422.846986086419L1268.1920843675882 422.846986086419L1268.1920843675882 422.38059580550384Q1268.1920843675882 415.1848600428135 1265.5492061090695 409.5881766718321Q1262.9063278505505 403.9914933008507 1257.9537072484518 400.70455227344894Q1253.001086646353 397.43982030704314 1246.1162777376062 397.43982030704314L1246.1162777376062 397.43982030704314Q1239.2536778898552 397.43982030704314 1234.3676844707443 400.70455227344894Q1229.5039001126297 403.9914933008507 1226.9276490370987 409.5881766718321Q1224.3736070225634 415.1848600428135 1224.3736070225634 422.38059580550384L1224.3736070225634 422.38059580550384ZM1336.6404103571306 505.686783601342L1336.6404103571306 505.686783601342Q1325.7579704691113 505.686783601342 1318.8065343773762 502.7996056718674Q1311.8550982856416 499.9346368033889 1307.924094489357 495.84816958013266Q1304.0152997540686 491.78391141787233 1302.3274111183757 487.6974441946161Q1300.661731543679 483.61097697135983 1300.4840590557112 481.21239838379637L1300.4840590557112 481.21239838379637Q1300.3285956287393 479.61334599208743 1301.5278849225213 478.5028929422895Q1302.727174216303 477.3924398924916 1304.1707631810402 477.3924398924916L1304.1707631810402 477.3924398924916L1311.8550982856416 477.3924398924916Q1313.276478189383 477.3924398924916 1314.253676873205 478.01429360037844Q1315.2086664960314 478.65835636926124 1315.852729264914 480.74600810288126L1315.852729264914 480.74600810288126Q1316.8077188877403 483.1445866904447 1318.7176981333926 486.09839180290714Q1320.6498864400412 489.05219691536956 1324.6475174193135 491.20647583197746Q1328.645148398586 493.3829638095813 1335.840884161276 493.3829638095813L1335.840884161276 493.3829638095813Q1343.3475467779099 493.3829638095813 1348.4556308069803 491.2953120759613Q1353.5859238970468 489.2076603423412 1356.2288021555655 484.25503974024264Q1358.8494713530886 479.302419138144 1358.8494713530886 470.50763098374466L1358.8494713530886 470.50763098374466L1358.8494713530886 459.6251910957253Q1355.0295128617838 464.6000207588199 1348.7887667219195 467.8647527252257Q1342.5480205820554 471.15169375262747 1333.1091696587735 471.15169375262747L1333.1091696587735 471.15169375262747Q1324.1589180774024 471.15169375262747 1317.7627085105664 468.0202161521974Q1311.3664989437307 464.91094761276327 1307.2800317204742 459.55856391273744Q1303.215773558214 454.20618021271156 1301.216958068578 447.3213713039646Q1299.2181425789415 440.43656239521766 1298.8850066640023 432.9298997785839L1298.8850066640023 432.9298997785839Q1298.7295432370304 428.4436694574004 1298.8850066640023 424.13511162418456L1298.8850066640023 424.13511162418456Q1299.2181425789415 416.6284490075508 1301.216958068578 409.74364009880384Q1303.215773558214 402.8588311900569 1307.2800317204742 397.43982030704314Q1311.3664989437307 391.99860036303346 1317.7627085105664 388.8671227626034Q1324.1589180774024 385.75785422316926 1333.1091696587735 385.75785422316926L1333.1091696587735 385.75785422316926Q1342.703484009027 385.75785422316926 1349.033066392875 389.26688586053064Q1355.3404397157271 392.79812655888793 1359.3380706949995 398.06167401492996L1359.3380706949995 398.06167401492996L1359.3380706949995 391.199074167179Q1359.3380706949995 389.60002177547 1360.3818965618098 388.46735966467617Q1361.4257224286196 387.35690661487826 1363.0247748203285 387.35690661487826L1363.0247748203285 387.35690661487826L1370.3759740099906 387.35690661487826Q1371.9750264016996 387.35690661487826 1373.0854794514976 388.46735966467617Q1374.2181415622915 389.60002177547 1374.2181415622915 391.199074167179L1374.2181415622915 391.199074167179L1374.2181415622915 468.753115165064Q1374.2181415622915 479.4578825651157 1370.6202736809462 487.78628043859993Q1367.022405799601 496.0924692510882 1358.7828441701006 500.88962642621516Q1350.5432825406003 505.686783601342 1336.6404103571306 505.686783601342ZM1336.3072744421913 458.3592746189557L1336.3072744421913 458.3592746189557Q1344.302536400736 458.3592746189557 1349.188529819847 454.67257049362667Q1354.0523141779615 451.0080754292936 1356.3842655825372 445.41139205831223Q1358.694007926117 439.81470868733084 1358.8494713530886 434.0403528283818L1358.8494713530886 434.0403528283818Q1359.0271438410562 431.819446728786 1359.0271438410562 428.53250570138425Q1359.0271438410562 425.24556467398247 1358.8494713530886 423.02465857438665L1358.8494713530886 423.02465857438665Q1358.694007926117 417.2503027154376 1356.3842655825372 411.6536193444562Q1354.0523141779615 406.0569359734748 1349.188529819847 402.3924409091417Q1344.302536400736 398.70573678381277 1336.3072744421913 398.70573678381277L1336.3072744421913 398.70573678381277Q1328.3120124836464 398.70573678381277 1323.5148553085194 402.30360466515793Q1318.7176981333926 405.9014725465031 1316.6522554607684 411.74245558844007Q1314.5646037271486 417.583438630377 1314.253676873205 424.2905750511562L1314.253676873205 424.2905750511562Q1314.0760043852372 428.4436694574004 1314.253676873205 432.77443635161217L1314.253676873205 432.77443635161217Q1314.5646037271486 439.4815727723915 1316.6522554607684 445.3225558143284Q1318.7176981333926 451.16353885626535 1323.5148553085194 454.7614067376105Q1328.3120124836464 458.3592746189557 1336.3072744421913 458.3592746189557ZM1421.2125146297383 472.10668337545366L1421.2125146297383 472.10668337545366Q1413.2172526711936 472.10668337545366 1406.665579677386 468.9085785920357Q1400.1139066835783 465.7104738086178 1396.116275704306 460.26925386460806Q1392.1186447250336 454.8280339205984 1392.1186447250336 447.9654340728474L1392.1186447250336 447.9654340728474Q1392.1186447250336 436.9275307578563 1401.0688963064047 430.37585776404876Q1410.0191478877757 423.8241847702411 1424.4106194131562 421.7365330366211L1424.4106194131562 421.7365330366211L1448.2409418618192 418.38296482623144L1448.2409418618192 413.74127107807624Q1448.2409418618192 406.0569359734748 1443.8435477846194 401.748378140259Q1439.4461537074199 397.43982030704314 1429.5409125032227 397.43982030704314L1429.5409125032227 397.43982030704314Q1422.500640167504 397.43982030704314 1418.0144098463204 400.3047891755217Q1413.5503885861328 403.19196710499625 1411.7958727674522 407.65598836518376L1411.7958727674522 407.65598836518376Q1410.8186740836302 410.0545669527472 1408.4200954960668 410.0545669527472L1408.4200954960668 410.0545669527472L1401.224359733376 410.0545669527472Q1399.4698439146957 410.0545669527472 1398.603690535853 409.03295014693316Q1397.715328096015 407.9891242801232 1397.715328096015 406.5455353153859L1397.715328096015 406.5455353153859Q1397.715328096015 404.14695672782244 1399.5586801586794 400.63792509046107Q1401.402032221344 397.1066843921038 1405.2219907126487 393.7531161817141Q1409.0641582649494 390.39954797132447 1415.060604733858 388.06759656674893Q1421.0570512027668 385.75785422316926 1429.6963759301943 385.75785422316926L1429.6963759301943 385.75785422316926Q1439.2906902804482 385.75785422316926 1445.8423632742558 388.2452690547166Q1452.3940362680632 390.7104748252679 1456.1695766373762 394.86356923151203Q1459.922907945693 399.03887269875213 1461.5885875203899 404.30242015479416Q1463.2764761560827 409.5881766718321 1463.2764761560827 415.0293966158418L1463.2764761560827 415.0293966158418L1463.2764761560827 466.82092685841565Q1463.2764761560827 468.41997925012464 1462.2326502892727 469.4638051169346Q1461.1888244224626 470.50763098374466 1459.5897720307537 470.50763098374466L1459.5897720307537 470.50763098374466L1452.2385728410916 470.50763098374466Q1450.4840570224108 470.50763098374466 1449.5290673995848 469.4638051169346Q1448.5740777767585 468.41997925012464 1448.5740777767585 466.82092685841565L1448.5740777767585 466.82092685841565L1448.5740777767585 459.9583270106647Q1446.4864260431384 462.82329587914325 1442.9773944057772 465.62163756463394Q1439.4461537074199 468.41997925012464 1434.182606251378 470.26333131278915Q1428.8968497343399 472.10668337545366 1421.2125146297383 472.10668337545366ZM1424.588291901124 460.11379043763634L1424.588291901124 460.11379043763634Q1431.1399648949316 460.11379043763634 1436.5811848389415 457.3154487521457Q1442.000195721955 454.51710706665494 1445.131673322385 448.60949684173016Q1448.2409418618192 442.6796775558094 1448.2409418618192 433.72942597443836L1448.2409418618192 433.72942597443836L1448.2409418618192 429.2431956532549L1429.6963759301943 431.9749101557577Q1418.3475457612599 433.5739625474667 1412.5953989633067 437.3272938557835Q1406.8210431043578 441.0806251641004 1406.8210431043578 446.8327719620536L1406.8210431043578 446.8327719620536Q1406.8210431043578 451.31900228323707 1409.4639213628768 454.27280739569943Q1412.1067996213958 457.2266125081618 1416.1932668446518 458.6702014728991Q1420.2575250069121 460.11379043763634 1424.588291901124 460.11379043763634ZM1497.6561025778255 470.50763098374466L1490.1494399611918 470.50763098374466Q1488.5503875694828 470.50763098374466 1487.5065617026728 469.4638051169346Q1486.4627358358628 468.41997925012464 1486.4627358358628 466.82092685841565L1486.4627358358628 466.82092685841565L1486.4627358358628 360.66161529773683Q1486.4627358358628 359.0625629060279 1487.5065617026728 358.01873703921785Q1488.5503875694828 356.9749111724078 1490.1494399611918 356.9749111724078L1490.1494399611918 356.9749111724078L1497.6561025778255 356.9749111724078Q1499.4106183965062 356.9749111724078 1500.3656080193323 358.01873703921785Q1501.3428067031543 359.0625629060279 1501.3428067031543 360.66161529773683L1501.3428067031543 360.66161529773683L1501.3428067031543 466.82092685841565Q1501.3428067031543 468.41997925012464 1500.3656080193323 469.4638051169346Q1499.4106183965062 470.50763098374466 1497.6561025778255 470.50763098374466L1497.6561025778255 470.50763098374466ZM1536.5219593207519 470.50763098374466L1528.8376242161505 470.50763098374466Q1527.2385718244414 470.50763098374466 1526.1947459576315 469.4638051169346Q1525.1509200908215 468.41997925012464 1525.1509200908215 466.82092685841565L1525.1509200908215 466.82092685841565L1525.1509200908215 391.04361074020727Q1525.1509200908215 389.4445583484983 1526.1947459576315 388.4007324816883Q1527.2385718244414 387.35690661487826 1528.8376242161505 387.35690661487826L1528.8376242161505 387.35690661487826L1536.5219593207519 387.35690661487826Q1538.1210117124608 387.35690661487826 1539.142628518275 388.4007324816883Q1540.186454385085 389.4445583484983 1540.186454385085 391.04361074020727L1540.186454385085 391.04361074020727L1540.186454385085 466.82092685841565Q1540.186454385085 468.41997925012464 1539.142628518275 469.4638051169346Q1538.1210117124608 470.50763098374466 1536.5219593207519 470.50763098374466L1536.5219593207519 470.50763098374466ZM1537.6324123705497 371.8549820396996L1527.549498678385 371.8549820396996Q1525.950446286676 371.8549820396996 1524.9288294808619 370.8111561728896Q1523.8850036140518 369.7673303060796 1523.8850036140518 368.1682779143706L1523.8850036140518 368.1682779143706L1523.8850036140518 359.528953186943Q1523.8850036140518 357.929900795234 1524.9288294808619 356.81944774543615Q1525.950446286676 355.68678563464226 1527.549498678385 355.68678563464226L1527.549498678385 355.68678563464226L1537.6324123705497 355.68678563464226Q1539.2314647622586 355.68678563464226 1540.3419178120564 356.81944774543615Q1541.4745799228506 357.929900795234 1541.4745799228506 359.528953186943L1541.4745799228506 359.528953186943L1541.4745799228506 368.1682779143706Q1541.4745799228506 369.7673303060796 1540.3419178120564 370.8111561728896Q1539.2314647622586 371.8549820396996 1537.6324123705497 371.8549820396996L1537.6324123705497 371.8549820396996ZM1592.6442564575375 472.10668337545366L1592.6442564575375 472.10668337545366Q1583.6940048761664 472.10668337545366 1577.2977953093307 469.8635682148619Q1570.9015857424947 467.6204530542701 1566.9039547632224 464.42234827085224Q1562.9063237839498 461.22424348743425 1560.9075082943139 458.0261387040163Q1558.9086928046775 454.8280339205984 1558.7310203167099 452.918054674946L1558.7310203167099 452.918054674946Q1558.5755568897382 451.16353885626535 1559.8636824275038 450.20854923343916Q1561.129598904273 449.231350549617 1562.4177244420387 449.231350549617L1562.4177244420387 449.231350549617L1569.613460204729 449.231350549617Q1570.4129864005838 449.231350549617 1570.9682129254827 449.47565022057256Q1571.5234394503816 449.7199498915281 1572.5006381342037 450.83040294132593L1572.5006381342037 450.83040294132593Q1574.5660808068278 453.0735181019177 1577.1201228213629 455.3166332625094Q1579.696373896894 457.5597484231012 1583.4497052052109 459.0033373878385Q1587.2030365135276 460.4247172915798 1592.7997198845092 460.4247172915798L1592.7997198845092 460.4247172915798Q1600.950445270026 460.4247172915798 1606.2362017870637 457.3154487521457Q1611.499749243106 454.20618021271156 1611.499749243106 448.1208974998191L1611.499749243106 448.1208974998191Q1611.499749243106 444.1232665205467 1609.345470326498 441.7246879329832Q1607.1911914098898 439.32610934541975 1601.6833442828922 437.4161300997674Q1596.153288094899 435.4839417931191 1586.558973744645 433.41849912049497L1586.558973744645 433.41849912049497Q1576.9646593943912 431.17538395990323 1571.3679760234097 427.88844293250145Q1565.7712926524284 424.62371096609564 1563.372714064865 420.0486444009283Q1560.9741354773016 415.49578689675695 1560.9741354773016 409.74364009880384L1560.9741354773016 409.74364009880384Q1560.9741354773016 403.836029873879 1564.505376175659 398.30597368588553Q1568.0144078130204 392.79812655888793 1574.8103804777834 389.26688586053064Q1581.6063531425464 385.75785422316926 1591.844730261683 385.75785422316926L1591.844730261683 385.75785422316926Q1600.1509190741713 385.75785422316926 1606.080738360092 387.84550595678934Q1611.9883485850169 389.9109486294134 1615.8305161373175 393.0424262298435Q1619.6726836896185 396.1516947692776 1621.5826629352707 399.1943361257238Q1623.492642180923 402.23697748217006 1623.6703146688908 404.30242015479416L1623.6703146688908 404.30242015479416Q1623.8257780958625 405.9014725465031 1622.6931159850685 406.94529841331314Q1621.5826629352707 407.9891242801232 1620.1390739705332 407.9891242801232L1620.1390739705332 407.9891242801232L1613.4319375497541 407.9891242801232Q1612.2992754389604 407.9891242801232 1611.5885854870896 407.5005249382121Q1610.8778955352188 407.034134657297 1610.2338327663363 406.3900718884142L1610.2338327663363 406.3900718884142Q1608.6347803746273 404.30242015479416 1606.4805014580195 402.23697748217006Q1604.3040134804153 400.14932574855 1600.883818087038 398.79457302779656Q1597.4414136326645 397.43982030704314 1591.844730261683 397.43982030704314L1591.844730261683 397.43982030704314Q1583.8494683031383 397.43982030704314 1579.8518373238658 400.7933885174328Q1575.8542063445932 404.14695672782244 1575.8542063445932 409.25504075689275L1575.8542063445932 409.25504075689275Q1575.8542063445932 412.29768211333896 1577.608722163274 414.6962607009024Q1579.3632379819549 417.0948392884659 1584.3158585840533 419.02702759511425Q1589.2906882471477 420.9370068407666 1599.0404660243732 423.18012200135837L1599.0404660243732 423.18012200135837Q1609.5897699974532 425.24556467398247 1615.6750527103459 428.77680537233977Q1621.7381263622424 432.28583700970114 1624.2921683767775 436.9275307578563Q1626.8684194523087 441.5692245060115 1626.8684194523087 447.63229815790805L1626.8684194523087 447.63229815790805Q1626.8684194523087 454.3616436396833 1623.026251900008 459.9583270106647Q1619.1840843477073 465.55501038164607 1611.499749243106 468.8197423480519Q1603.8376231995003 472.10668337545366 1592.6442564575375 472.10668337545366ZM1688.8983268140194 470.50763098374466L1677.8604234990278 470.50763098374466Q1668.9101719176572 470.50763098374466 1663.3134885466754 467.0652265293712Q1657.7168051756942 463.6228220749977 1655.162763161159 457.3154487521457Q1652.6087211466238 451.0080754292936 1652.6087211466238 442.368750701866L1652.6087211466238 442.368750701866L1652.6087211466238 400.14932574855L1640.1272288668954 400.14932574855Q1638.5281764751865 400.14932574855 1637.4843506083764 399.10549988174Q1636.4627338025623 398.06167401492996 1636.4627338025623 396.46262162322097L1636.4627338025623 396.46262162322097L1636.4627338025623 391.04361074020727Q1636.4627338025623 389.4445583484983 1637.4843506083764 388.4007324816883Q1638.5281764751865 387.35690661487826 1640.1272288668954 387.35690661487826L1640.1272288668954 387.35690661487826L1652.6087211466238 387.35690661487826L1652.6087211466238 360.66161529773683Q1652.6087211466238 359.0625629060279 1653.652547013434 358.01873703921785Q1654.674163819248 356.9749111724078 1656.273216210957 356.9749111724078L1656.273216210957 356.9749111724078L1663.8020878885866 356.9749111724078Q1665.4011402802955 356.9749111724078 1666.4449661471056 358.01873703921785Q1667.4665829529197 359.0625629060279 1667.4665829529197 360.66161529773683L1667.4665829529197 360.66161529773683L1667.4665829529197 387.35690661487826L1687.29927442231 387.35690661487826Q1689.0537902409908 387.35690661487826 1690.030988924813 388.4007324816883Q1690.9859785476394 389.4445583484983 1690.9859785476394 391.04361074020727L1690.9859785476394 391.04361074020727L1690.9859785476394 396.46262162322097Q1690.9859785476394 398.06167401492996 1690.030988924813 399.10549988174Q1689.0537902409908 400.14932574855 1687.29927442231 400.14932574855L1687.29927442231 400.14932574855L1667.4665829529197 400.14932574855L1667.4665829529197 441.23608859107213Q1667.4665829529197 448.7649602687019 1670.042834028451 453.0735181019177Q1672.596876042986 457.4042849961295 1679.1485490367934 457.4042849961295L1679.1485490367934 457.4042849961295L1688.8983268140194 457.4042849961295Q1690.4973792057278 457.4042849961295 1691.5412050725379 458.42590180194355Q1692.585030939348 459.4697276687536 1692.585030939348 461.0687800604626L1692.585030939348 461.0687800604626L1692.585030939348 466.82092685841565Q1692.585030939348 468.41997925012464 1691.5412050725379 469.4638051169346Q1690.4973792057278 470.50763098374466 1688.8983268140194 470.50763098374466L1688.8983268140194 470.50763098374466Z " fill="#ffe67c" transform="matrix(0.5169607434642227,0,0,0.5169607434642227,0,77.35185413316704)"/></g></svg>